<svg width="23" height="22" viewBox="0 0 23 22" fill="none" xmlns="http://www.w3.org/2000/svg">
<g clip-path="url(#clip0_1247_53)">
<path fill-rule="evenodd" clip-rule="evenodd" d="M16.3509 6.27229C16.3509 8.96619 14.1672 11.15 11.4733 11.15C8.77938 11.15 6.59553 8.96619 6.59553 6.27229C6.59553 3.57838 8.77938 1.39453 11.4733 1.39453C14.1672 1.39453 16.3509 3.57838 16.3509 6.27229ZM0.127243 10.7956C5.44145 10.4373 10.0729 14.4161 10.5043 19.7416C10.549 20.2934 10.5469 20.8381 10.5012 21.3721C5.18704 21.7303 0.555559 17.7516 0.124146 12.4261C0.0794719 11.8743 0.0815989 11.3295 0.127243 10.7956ZM13.9396 21.1857C19.2651 20.7543 23.2438 16.1228 22.8856 10.8086C22.3516 10.763 21.8069 10.7608 21.2551 10.8055C15.9295 11.2369 11.9508 15.8684 12.3091 21.1825C12.843 21.2282 13.3878 21.2304 13.9396 21.1857Z" fill="#B29C94"/>
</g>
<defs>
<clipPath id="clip0_1247_53">
<rect width="23" height="21" fill="white" transform="translate(0 0.5)"/>
</clipPath>
</defs>
</svg>
