<svg width="21" height="22" viewBox="0 0 21 22" fill="none" xmlns="http://www.w3.org/2000/svg">
<path d="M13.2266 4.87097C13.2266 2.7331 14.9597 1 17.0975 1C19.2354 1 20.9685 2.7331 20.9685 4.87097C20.9685 7.00884 19.2354 8.74194 17.0975 8.74194C14.9597 8.74194 13.2266 7.00884 13.2266 4.87097Z" fill="#B29C94"/>
<path d="M17.3322 10.4573V13.2429C17.3322 14.4771 17.3313 15.3502 17.2747 16.0323C17.219 16.7039 17.1134 17.1132 16.9466 17.434C16.6218 18.0592 16.1122 18.5691 15.4868 18.8938C15.1659 19.0607 14.7567 19.1663 14.0851 19.222C13.4029 19.2786 12.5298 19.2794 11.2957 19.2794H8.72555C7.4914 19.2794 6.61836 19.2786 5.9363 19.222C5.26454 19.1663 4.85544 19.0607 4.53447 18.8938C3.90922 18.5691 3.39942 18.0592 3.07462 17.434C2.90789 17.1132 2.80232 16.7039 2.74651 16.0323C2.68989 15.3502 2.68918 14.4771 2.68918 13.2429V10.6728C2.68918 9.43864 2.68989 8.56561 2.74651 7.88355C2.80232 7.21178 2.90789 6.80269 3.07462 6.48172C3.39942 5.85647 3.90922 5.34666 4.53447 5.02187C4.85544 4.85514 5.26454 4.74957 5.9363 4.69378C6.61836 4.63714 7.49138 4.63645 8.72555 4.63645H11.5112C11.5361 4.03342 11.6565 3.45503 11.8575 2.91602H8.68729C7.5 2.91599 6.55553 2.916 5.79391 2.97924C5.01385 3.04402 4.34886 3.17959 3.7414 3.49514C2.80191 3.98316 2.03591 4.74918 1.54789 5.68866C1.23234 6.2961 1.09677 6.96109 1.032 7.74116C0.96875 8.50277 0.96875 9.44725 0.96875 10.6345V13.2811C0.96875 14.4685 0.96875 15.413 1.032 16.1747C1.09677 16.9547 1.23234 17.6196 1.54789 18.2272C2.03591 19.1665 2.80191 19.9325 3.7414 20.4207C4.34886 20.7362 5.01385 20.8717 5.79391 20.9366C6.55553 20.9999 7.49996 20.9999 8.68725 20.9999H11.334C12.5212 20.9999 13.4657 20.9999 14.2274 20.9366C15.0074 20.8717 15.6724 20.7362 16.2799 20.4207C17.2193 19.9325 17.9853 19.1665 18.4734 18.2272C18.7889 17.6196 18.9244 16.9547 18.9894 16.1747C19.0526 15.413 19.0526 14.4685 19.0526 13.2814V10.1109C18.5134 10.3121 17.9352 10.4324 17.3322 10.4573Z" fill="#B29C94"/>
</svg>
