<svg width="66" height="62" viewBox="0 0 66 62" fill="none" xmlns="http://www.w3.org/2000/svg">
<path d="M11.0996 37.3154C13.8381 46.8329 22.6103 53.7953 33.0086 53.7953C43.4069 53.7953 52.1791 46.8329 54.9176 37.3154" stroke="#3C2219" stroke-width="1.64983" stroke-miterlimit="10" stroke-linecap="round" stroke-linejoin="round"/>
<path d="M11.0938 24.7048C13.8257 15.1772 22.6029 8.20508 33.0085 8.20508C43.4141 8.20508 52.1912 15.1772 54.9233 24.7048" stroke="#3C2219" stroke-width="1.64983" stroke-miterlimit="10" stroke-linecap="round" stroke-linejoin="round"/>
<path d="M64.0205 37.3153H1.9803C1.86552 37.3153 1.77148 37.2462 1.77148 37.1617L4.63758 31.0099L1.7716 24.8581C1.7716 24.7736 1.86552 24.7046 1.98042 24.7046H64.0206C64.1354 24.7046 64.2294 24.7736 64.2294 24.8581L61.3759 31.0099L64.2294 37.1617C64.2293 37.2461 64.1354 37.3153 64.0205 37.3153Z" stroke="#3C2219" stroke-width="1.64983" stroke-miterlimit="10" stroke-linecap="round" stroke-linejoin="round"/>
<path d="M34.7526 15.4294L32.9944 14.4981L31.2305 15.4186L31.5728 13.4586L30.1523 12.0655L32.1221 11.7854L33.0081 10.0039L33.8832 11.7908L35.8513 12.0829L34.4223 13.4674L34.7526 15.4294Z" stroke="#3C2219" stroke-width="1.64983" stroke-miterlimit="10" stroke-linecap="round" stroke-linejoin="round"/>
<path d="M26.7324 16.6432L24.7441 16.7158L23.6768 18.395L22.9933 16.5264L21.0664 16.0302L22.6323 14.8027L22.5088 12.8169L24.1602 13.9268L26.0106 13.1958L25.4653 15.1092L26.7324 16.6432Z" stroke="#3C2219" stroke-width="1.64983" stroke-miterlimit="10" stroke-linecap="round" stroke-linejoin="round"/>
<path d="M23.7106 43.6138L24.7677 45.2993L26.7554 45.3842L25.4791 46.9104L26.0127 48.8271L24.1668 48.0848L22.5087 49.1847L22.6443 47.1995L21.0859 45.9625L23.0156 45.4781L23.7106 43.6138Z" stroke="#3C2219" stroke-width="1.64983" stroke-miterlimit="10" stroke-linecap="round" stroke-linejoin="round"/>
<path d="M31.2627 46.5723L33.021 47.5035L34.7849 46.583L34.4425 48.543L35.863 49.936L33.8932 50.2161L33.0073 51.9976L32.1322 50.2108L30.1641 49.9187L31.593 48.5343L31.2627 46.5723Z" stroke="#3C2219" stroke-width="1.64983" stroke-miterlimit="10" stroke-linecap="round" stroke-linejoin="round"/>
<path d="M39.2812 45.3587L41.2695 45.286L42.3368 43.6069L43.0203 45.4755L44.9471 45.9716L43.3813 47.1992L43.5048 49.1849L41.8534 48.075L40.003 48.8061L40.5483 46.8927L39.2812 45.3587Z" stroke="#3C2219" stroke-width="1.64983" stroke-miterlimit="10" stroke-linecap="round" stroke-linejoin="round"/>
<path d="M42.3048 18.3883L41.2477 16.7026L39.2598 16.6179L40.5363 15.0917L40.0027 13.1749L41.8486 13.9172L43.5065 12.8174L43.371 14.8024L44.9294 16.0394L42.9997 16.5238L42.3048 18.3883Z" stroke="#3C2219" stroke-width="1.64983" stroke-miterlimit="10" stroke-linecap="round" stroke-linejoin="round"/>
<path d="M9.84961 28.0103C9.84961 27.638 10.144 27.3438 10.5161 27.3438H12.3253C13.7709 27.3438 14.6452 28.2007 14.6452 29.4386V29.4559C14.6452 30.8582 13.5545 31.5853 12.1954 31.5853H11.1827V32.7885C11.1827 33.1608 10.8883 33.4551 10.5161 33.4551C10.144 33.4551 9.84961 33.1607 9.84961 32.7885V28.0103ZM12.2388 30.3995C12.9053 30.3995 13.2949 30.0013 13.2949 29.4819V29.4646C13.2949 28.8673 12.8794 28.5471 12.2129 28.5471H11.1828V30.3996L12.2388 30.3995Z" fill="black"/>
<path d="M14.861 32.5464L16.9731 27.7766C17.1203 27.4477 17.3886 27.2485 17.7522 27.2485H17.8301C18.1936 27.2485 18.4534 27.4476 18.6005 27.7766L20.7127 32.5464C20.7559 32.6416 20.782 32.7282 20.782 32.8147C20.782 33.1696 20.5049 33.4553 20.1501 33.4553C19.8385 33.4553 19.6307 33.2735 19.5095 32.9965L19.1027 32.0443H16.4364L16.0123 33.0399C15.8998 33.2996 15.6747 33.4554 15.3978 33.4554C15.0515 33.4554 14.7832 33.1784 14.7832 32.8321C14.7831 32.7368 14.8177 32.6416 14.861 32.5464ZM18.6093 30.867L17.7696 28.8672L16.93 30.867H18.6093Z" fill="black"/>
<path d="M22.5911 28.5729H21.3099C20.9722 28.5729 20.6953 28.2958 20.6953 27.9583C20.6953 27.6207 20.9724 27.3438 21.3099 27.3438H25.2052C25.5428 27.3438 25.8199 27.6208 25.8199 27.9583C25.8199 28.2959 25.5428 28.5729 25.2052 28.5729H23.924V32.7885C23.924 33.1608 23.6298 33.4551 23.2575 33.4551C22.8852 33.4551 22.591 33.1607 22.591 32.7885L22.5911 28.5729Z" fill="black"/>
<path d="M26.7891 32.7367V28.0103C26.7891 27.638 27.0834 27.3438 27.4556 27.3438H30.8143C31.1432 27.3438 31.4115 27.6121 31.4115 27.941C31.4115 28.2699 31.1432 28.5296 30.8143 28.5296H28.1134V29.7589H30.4247C30.7536 29.7589 31.0219 30.0272 31.0219 30.3561C31.0219 30.685 30.7536 30.9447 30.4247 30.9447H28.1134V32.2172H30.8575C31.1864 32.2172 31.4548 32.4856 31.4548 32.8145C31.4548 33.1434 31.1864 33.4031 30.8575 33.4031H27.4556C27.0833 33.4032 26.7891 33.109 26.7891 32.7367Z" fill="black"/>
<path d="M32.5898 27.9758C32.5898 27.6036 32.8841 27.3093 33.2564 27.3093H33.3948C33.7151 27.3093 33.9056 27.4651 34.0874 27.6989L36.6584 31.0749V27.9499C36.6584 27.5864 36.9527 27.292 37.3164 27.292C37.6799 27.292 37.9743 27.5863 37.9743 27.9499V32.7715C37.9743 33.1438 37.6799 33.4381 37.3078 33.4381H37.2645C36.9442 33.4381 36.7538 33.2823 36.5721 33.0485L33.9058 29.5512V32.7973C33.9058 33.1609 33.6116 33.4553 33.2479 33.4553C32.8843 33.4553 32.59 33.1609 32.59 32.7973L32.5898 27.9758Z" fill="black"/>
<path d="M40.839 28.5729H39.5579C39.2203 28.5729 38.9434 28.2958 38.9434 27.9583C38.9434 27.6207 39.2204 27.3438 39.5579 27.3438H43.4533C43.7909 27.3438 44.0678 27.6208 44.0678 27.9583C44.0678 28.2959 43.7908 28.5729 43.4533 28.5729H42.1722V32.7885C42.1722 33.1608 41.8778 33.4551 41.5056 33.4551C41.1334 33.4551 40.8391 33.1607 40.8391 32.7885L40.839 28.5729Z" fill="black"/>
<path d="M45.0371 32.7367V28.0103C45.0371 27.638 45.3314 27.3438 45.7036 27.3438H49.0623C49.3912 27.3438 49.6596 27.6121 49.6596 27.941C49.6596 28.2699 49.3912 28.5296 49.0623 28.5296H46.3616V29.7589H48.6729C49.0018 29.7589 49.2701 30.0272 49.2701 30.3561C49.2701 30.685 49.0018 30.9447 48.6729 30.9447H46.3616V32.2172H49.1057C49.4346 32.2172 49.7029 32.4856 49.7029 32.8145C49.7029 33.1434 49.4346 33.4031 49.1057 33.4031H45.7036C45.3315 33.4032 45.0371 33.109 45.0371 32.7367Z" fill="black"/>
<path d="M50.8379 28.0103C50.8379 27.638 51.1321 27.3438 51.5044 27.3438H53.2011C55.1055 27.3438 56.4214 28.6509 56.4214 30.3562V30.3735C56.4214 32.0789 55.1056 33.4033 53.2011 33.4033H51.5044C51.1321 33.4033 50.8379 33.1091 50.8379 32.7368V28.0103ZM53.201 32.2C54.2917 32.2 55.0275 31.4642 55.0275 30.3908V30.3734C55.0275 29.3 54.2917 28.547 53.201 28.547H52.171V32.2H53.201Z" fill="black"/>
<path d="M4.82897 24.7046L4.47603 23.6183C4.06675 22.3593 4.51504 20.9797 5.58613 20.2014L11.062 16.2229C11.5842 15.8435 11.9727 15.3086 12.1721 14.6948L14.2637 8.25773C14.673 6.99845 15.8464 6.14584 17.1705 6.14584H23.9388C24.5843 6.14584 25.213 5.94149 25.7352 5.56215L31.2111 1.5836C32.2822 0.805468 33.7329 0.805468 34.8041 1.5836L40.28 5.56215C40.8021 5.94149 41.431 6.14584 42.0764 6.14584H48.8447C50.1688 6.14584 51.3422 6.99845 51.7514 8.25773L53.8431 14.6948C54.0425 15.3085 54.4311 15.8435 54.9532 16.2229L60.4291 20.2014C61.5001 20.9798 61.9484 22.3593 61.5392 23.6183L61.1862 24.7046" stroke="black" stroke-width="1.64983" stroke-miterlimit="10" stroke-linecap="round" stroke-linejoin="round"/>
<path d="M61.1928 37.3154L61.5392 38.3818C61.9484 39.6409 61.5001 41.0205 60.4291 41.7987L54.9532 45.7773C54.431 46.1566 54.0425 46.6915 53.8431 47.3054L51.7514 53.7424C51.3422 55.0017 50.1688 55.8543 48.8447 55.8543H42.0764C41.4308 55.8543 40.8021 56.0586 40.28 56.438L34.8041 60.4165C33.733 61.1947 32.2823 61.1947 31.2111 60.4165L25.7352 56.438C25.213 56.0586 24.5842 55.8543 23.9388 55.8543H17.1705C15.8464 55.8543 14.673 55.0017 14.2637 53.7424L12.1721 47.3054C11.9727 46.6916 11.5842 46.1566 11.062 45.7773L5.58613 41.7987C4.51504 41.0204 4.06675 39.6409 4.47603 38.3818L4.82237 37.3154" stroke="black" stroke-width="1.64983" stroke-miterlimit="10" stroke-linecap="round" stroke-linejoin="round"/>
</svg>
