<svg width="62" height="62" viewBox="0 0 62 62" fill="none" xmlns="http://www.w3.org/2000/svg">
<path d="M38.3105 38.9107L44.986 32.29C45.9037 31.3799 47.3856 31.3858 48.2964 32.3038C49.2069 33.2218 49.2007 34.7038 48.2827 35.6143L40.7505 43.0848" stroke="#3C2219" stroke-width="0.786885" stroke-miterlimit="10" stroke-linecap="round" stroke-linejoin="round"/>
<path d="M35.7363 36.831L40.3147 32.29C41.2327 31.3799 42.7144 31.3858 43.6252 32.3038C43.8527 32.5333 44.0232 32.7979 44.1363 33.0802" stroke="#3C2219" stroke-width="0.786885" stroke-miterlimit="10" stroke-linecap="round" stroke-linejoin="round"/>
<path d="M31.8438 36.0579L35.6428 32.29C36.5605 31.3799 38.0424 31.3858 38.9533 32.3038C39.1808 32.5333 39.3513 32.7979 39.4644 33.0802" stroke="#3C2219" stroke-width="0.786885" stroke-miterlimit="10" stroke-linecap="round" stroke-linejoin="round"/>
<path d="M30.0185 40.1506L35.7094 41.2811C35.853 41.3096 35.9962 41.3234 36.1372 41.3234C37.1585 41.3234 38.0713 40.6037 38.2779 39.5637C38.513 38.3801 37.7441 37.2299 36.5605 36.9952L27.753 35.2457C24.5395 34.6073 21.2192 35.6076 18.893 37.9149L14.3848 42.386" stroke="#3C2219" stroke-width="0.786885" stroke-miterlimit="10" stroke-linecap="round" stroke-linejoin="round"/>
<path d="M40.75 43.085C38.5795 45.2377 35.4808 46.1712 32.4825 45.5755L28.1175 44.7086C26.2241 44.3325 24.2677 44.9217 22.8972 46.281L20.7949 48.3663" stroke="#3C2219" stroke-width="0.786885" stroke-miterlimit="10" stroke-linecap="round" stroke-linejoin="round"/>
<path d="M59.0173 30.9987C59.0173 15.5256 46.4739 2.98223 31.0008 2.98223C15.5278 2.98223 2.98438 15.5256 2.98438 30.9987C2.98438 46.4717 15.5278 59.0151 31.0008 59.0151C46.4739 59.0151 59.0173 46.4717 59.0173 30.9987Z" stroke="#3C2219" stroke-width="0.786885" stroke-miterlimit="10" stroke-linecap="round" stroke-linejoin="round"/>
<path d="M37.2231 14.0945C35.8139 10.5686 33.5277 7.4155 30.9982 5.96436C23.5798 10.2201 18.2562 29.1139 30.9982 29.1139C36.8451 29.1139 38.888 25.1355 38.6703 20.4185" stroke="#F38660" stroke-width="0.786885" stroke-miterlimit="10" stroke-linecap="round" stroke-linejoin="round"/>
<path d="M28.0352 11.8918C28.8935 10.4626 29.9043 9.22227 30.9974 8.34424" stroke="#F38660" stroke-width="0.786885" stroke-miterlimit="10" stroke-linecap="round" stroke-linejoin="round"/>
<path d="M27.043 13.7795C27.1177 13.6169 27.1948 13.4559 27.2735 13.2959" stroke="#F38660" stroke-width="0.786885" stroke-miterlimit="10" stroke-linecap="round" stroke-linejoin="round"/>
<path d="M39.9475 13.0903L32.1852 21.0234L27.1223 17.3962C26.7226 17.1097 26.1629 17.1293 25.7839 17.4733C25.3472 17.8693 25.3144 18.5441 25.7102 18.9808L31.1341 24.9615C31.2066 25.0405 31.2938 25.1211 31.3829 25.1877C32.1551 25.7641 33.2485 25.6054 33.8249 24.8333L33.8669 24.7769L41.5603 14.4703C41.8751 14.05 41.8374 13.4513 41.4518 13.0739C41.0318 12.6631 40.3584 12.6703 39.9475 13.0903Z" fill="#3C2219"/>
<path d="M41.2734 23.1206L41.6554 23.5026" stroke="#F38660" stroke-width="0.786885" stroke-miterlimit="10" stroke-linecap="round" stroke-linejoin="round"/>
<path d="M43.0234 24.8687L43.4057 25.2509" stroke="#F38660" stroke-width="0.786885" stroke-miterlimit="10" stroke-linecap="round" stroke-linejoin="round"/>
<path d="M41.2734 25.2509L41.6554 24.8687" stroke="#F38660" stroke-width="0.786885" stroke-miterlimit="10" stroke-linecap="round" stroke-linejoin="round"/>
<path d="M43.0234 23.5026L43.4057 23.1206" stroke="#F38660" stroke-width="0.786885" stroke-miterlimit="10" stroke-linecap="round" stroke-linejoin="round"/>
<path d="M18.4043 29.7651L18.7866 30.1474" stroke="#F38660" stroke-width="0.786885" stroke-miterlimit="10" stroke-linecap="round" stroke-linejoin="round"/>
<path d="M20.1523 31.5132L20.5343 31.8952" stroke="#F38660" stroke-width="0.786885" stroke-miterlimit="10" stroke-linecap="round" stroke-linejoin="round"/>
<path d="M18.4043 31.8952L18.7866 31.5132" stroke="#F38660" stroke-width="0.786885" stroke-miterlimit="10" stroke-linecap="round" stroke-linejoin="round"/>
<path d="M20.1523 30.1474L20.5343 29.7651" stroke="#F38660" stroke-width="0.786885" stroke-miterlimit="10" stroke-linecap="round" stroke-linejoin="round"/>
<path d="M23.6529 12.2422C16.1663 15.1845 10.8516 22.4819 10.8516 30.9999C10.8516 42.1094 19.8899 51.1478 30.9994 51.1478C42.1089 51.1478 51.1473 42.1094 51.1473 30.9999C51.1473 24.3946 47.9516 18.5232 43.0253 14.8474" stroke="#3C2219" stroke-width="0.786885" stroke-miterlimit="10" stroke-linecap="round" stroke-linejoin="round"/>
<path d="M25.9255 7.5625C17.9095 9.2907 11.3865 15.0251 8.55078 22.5658" stroke="#F38660" stroke-width="0.786885" stroke-miterlimit="10" stroke-linecap="round" stroke-linejoin="round"/>
<path d="M53.4509 22.5658C50.6152 15.0251 44.0922 9.2907 36.0762 7.5625" stroke="#F38660" stroke-width="0.786885" stroke-miterlimit="10" stroke-linecap="round" stroke-linejoin="round"/>
<path d="M31 61C47.5685 61 61 47.5685 61 31C61 14.4315 47.5685 1 31 1C14.4315 1 1 14.4315 1 31C1 47.5685 14.4315 61 31 61Z" stroke="#3C2219" stroke-width="0.786885" stroke-miterlimit="10" stroke-linecap="round" stroke-linejoin="round"/>
</svg>
