<svg width="60" height="60" viewBox="0 0 60 60" fill="none" xmlns="http://www.w3.org/2000/svg">
<path d="M29.9993 12.2608C30.6138 12.2608 31.1118 11.7628 31.1118 11.1483V1.11254C31.1118 0.498063 30.6138 0 29.9993 0C29.3847 0 28.8867 0.498015 28.8867 1.11254V11.1483C28.8867 11.7628 29.3847 12.2608 29.9993 12.2608Z" fill="#3C2219"/>
<path d="M23.1147 12.4145C23.2675 12.8847 23.7036 13.1835 24.1725 13.1835C24.2863 13.1835 24.4021 13.1659 24.5164 13.1287C25.1007 12.939 25.4206 12.3113 25.2307 11.727L23.5047 6.41467C23.3148 5.83037 22.6877 5.51011 22.103 5.70043C21.5187 5.89013 21.1989 6.51789 21.3887 7.10214L23.1147 12.4145Z" fill="#3C2219"/>
<path d="M18.0173 15.4024C18.2351 15.702 18.5743 15.8611 18.9182 15.8611C19.145 15.8611 19.3739 15.792 19.5712 15.6486C20.0683 15.2874 20.1785 14.5917 19.8174 14.0947L16.5341 9.57574C16.173 9.07858 15.4767 8.96884 14.9802 9.32953C14.4831 9.69066 14.3729 10.3864 14.734 10.8834L18.0173 15.4024Z" fill="#3C2219"/>
<path d="M9.57398 16.5363L14.093 19.8195C14.2903 19.963 14.5191 20.0321 14.7459 20.0321C15.0899 20.0321 15.4291 19.873 15.6468 19.5734C16.0079 19.0764 15.8977 18.3807 15.4006 18.0195L10.8816 14.7363C10.3853 14.3756 9.68934 14.4853 9.32773 14.9825C8.96665 15.4794 9.07683 16.1752 9.57398 16.5363Z" fill="#3C2219"/>
<path d="M6.41158 23.5062L11.7239 25.2322C11.8382 25.2693 11.954 25.2869 12.0679 25.2869C12.5368 25.2869 12.9731 24.9882 13.1256 24.518C13.3155 23.9337 12.9957 23.3059 12.4114 23.1163L7.09906 21.3903C6.51432 21.2002 5.8868 21.5201 5.69734 22.1046C5.50745 22.6888 5.82727 23.3165 6.41158 23.5062Z" fill="#3C2219"/>
<path d="M12.2608 30.0002C12.2608 29.3857 11.7628 28.8877 11.1483 28.8877H1.11254C0.498066 28.8877 0 29.3857 0 30.0002C0 30.6147 0.498018 31.1128 1.11254 31.1128H11.1483C11.7628 31.1127 12.2608 30.6147 12.2608 30.0002Z" fill="#3C2219"/>
<path d="M13.1256 35.4816C12.9357 34.8971 12.3084 34.577 11.7239 34.7673L6.41158 36.4933C5.82727 36.683 5.50745 37.3108 5.69734 37.895C5.85011 38.3652 6.2862 38.664 6.7551 38.664C6.86897 38.664 6.98476 38.6464 7.09906 38.6092L12.4114 36.8832C12.9957 36.6936 13.3156 36.0659 13.1256 35.4816Z" fill="#3C2219"/>
<path d="M15.6468 40.4268C15.2857 39.9298 14.5895 39.8199 14.093 40.1806L9.57397 43.4638C9.07682 43.8249 8.96664 44.5207 9.32777 45.0176C9.54548 45.3173 9.88469 45.4763 10.2286 45.4763C10.4555 45.4763 10.6843 45.4072 10.8816 45.2638L15.4006 41.9805C15.8978 41.6194 16.008 40.9237 15.6468 40.4268Z" fill="#3C2219"/>
<path d="M19.5712 44.3514C19.0751 43.9909 18.3787 44.1005 18.0173 44.5976L14.734 49.1166C14.3729 49.6136 14.4831 50.3093 14.9802 50.6705C15.1775 50.8139 15.4063 50.883 15.6332 50.883C15.9771 50.883 16.3163 50.7239 16.534 50.4243L19.8173 45.9053C20.1785 45.4083 20.0683 44.7125 19.5712 44.3514Z" fill="#3C2219"/>
<path d="M24.5164 46.8712C23.9313 46.6813 23.3042 47.0011 23.1147 47.5854L21.3887 52.8977C21.1989 53.482 21.5187 54.1098 22.103 54.2994C22.2173 54.3366 22.3331 54.3542 22.4469 54.3542C22.9158 54.3542 23.3522 54.0554 23.5047 53.5852L25.2307 48.2729C25.4206 47.6886 25.1007 47.0609 24.5164 46.8712Z" fill="#3C2219"/>
<path d="M29.9993 47.7393C29.3847 47.7393 28.8867 48.2373 28.8867 48.8518V58.8875C28.8867 59.502 29.3847 60.0001 29.9993 60.0001C30.6138 60.0001 31.1118 59.5021 31.1118 58.8875V48.8518C31.1118 48.2373 30.6138 47.7393 29.9993 47.7393Z" fill="#3C2219"/>
<path d="M36.8817 47.5855C36.6918 47.0012 36.0646 46.6811 35.4799 46.8713C34.8956 47.061 34.5758 47.6887 34.7657 48.273L36.4917 53.5853C36.6444 54.0555 37.0805 54.3542 37.5494 54.3542C37.6633 54.3542 37.7791 54.3366 37.8934 54.2995C38.4777 54.1098 38.7975 53.482 38.6076 52.8978L36.8817 47.5855Z" fill="#3C2219"/>
<path d="M41.9813 44.5976C41.6202 44.1004 40.924 43.991 40.4275 44.3514C39.9303 44.7125 39.8202 45.4083 40.1813 45.9053L43.4646 50.4242C43.6823 50.7239 44.0215 50.8829 44.3654 50.8829C44.5923 50.8829 44.8211 50.8138 45.0184 50.6704C45.5155 50.3093 45.6257 49.6135 45.2646 49.1165L41.9813 44.5976Z" fill="#3C2219"/>
<path d="M50.4241 43.4638L45.9051 40.1806C45.4086 39.8199 44.7126 39.9298 44.3512 40.4268C43.9901 40.9237 44.1003 41.6194 44.5974 41.9806L49.1164 45.2639C49.3137 45.4073 49.5425 45.4764 49.7693 45.4764C50.1133 45.4764 50.4525 45.3174 50.6702 45.0177C51.0314 44.5207 50.9212 43.8249 50.4241 43.4638Z" fill="#3C2219"/>
<path d="M53.5833 36.4932L48.2709 34.7673C47.6858 34.5771 47.0587 34.8972 46.8692 35.4815C46.6793 36.0658 46.9991 36.6936 47.5835 36.8832L52.8958 38.6092C53.0101 38.6463 53.1259 38.6639 53.2397 38.6639C53.7086 38.6639 54.145 38.3652 54.2975 37.895C54.4874 37.3106 54.1676 36.6829 53.5833 36.4932Z" fill="#3C2219"/>
<path d="M58.8866 28.8877H48.8508C48.2363 28.8877 47.7383 29.3857 47.7383 30.0002C47.7383 30.6147 48.2363 31.1128 48.8508 31.1128H58.8866C59.5011 31.1128 59.9992 30.6147 59.9992 30.0002C59.9992 29.3857 59.5011 28.8877 58.8866 28.8877Z" fill="#3C2219"/>
<path d="M46.8692 24.5181C47.022 24.9883 47.4581 25.2871 47.927 25.2871C48.0409 25.2871 48.1567 25.2695 48.271 25.2323L53.5833 23.5063C54.1676 23.3166 54.4874 22.6889 54.2975 22.1046C54.1076 21.5201 53.4805 21.2001 52.8958 21.3904L47.5835 23.1163C46.9992 23.3061 46.6793 23.9339 46.8692 24.5181Z" fill="#3C2219"/>
<path d="M44.3512 19.5734C44.5689 19.873 44.9081 20.0321 45.2521 20.0321C45.479 20.0321 45.7077 19.963 45.905 19.8195L50.424 16.5363C50.9212 16.1752 51.0313 15.4794 50.6702 14.9825C50.3091 14.4853 49.6129 14.3756 49.1164 14.7363L44.5974 18.0195C44.1003 18.3807 43.9901 19.0764 44.3512 19.5734Z" fill="#3C2219"/>
<path d="M40.4275 15.6485C40.6248 15.7919 40.8536 15.861 41.0804 15.861C41.4244 15.861 41.7636 15.702 41.9813 15.4024L45.2646 10.8834C45.6257 10.3864 45.5155 9.69071 45.0184 9.32953C44.5221 8.96884 43.8259 9.07858 43.4645 9.57573L40.1812 14.0947C39.8202 14.5917 39.9303 15.2874 40.4275 15.6485Z" fill="#3C2219"/>
<path d="M35.4799 13.1291C35.5942 13.1662 35.71 13.1838 35.8239 13.1838C36.2928 13.1838 36.7291 12.8851 36.8817 12.4149L38.6076 7.10256C38.7975 6.51826 38.4777 5.8905 37.8934 5.70085C37.3082 5.51072 36.6811 5.83078 36.4917 6.41508L34.7657 11.7274C34.5758 12.3116 34.8957 12.9394 35.4799 13.1291Z" fill="#3C2219"/>
<path d="M42.1253 32.7845C42.0418 32.474 41.8428 32.2145 41.5644 32.054L38.0063 29.9997L41.5642 27.9457C41.8428 27.7849 42.0418 27.5254 42.1253 27.2149C42.2087 26.9042 42.1659 26.5798 42.0051 26.3012L39.2031 21.4476C38.8705 20.8759 38.1334 20.6797 37.5604 21.0104L34.0025 23.0647V18.9562C34.0025 18.2924 33.4623 17.7524 32.7985 17.7524H27.1985C26.5347 17.7524 25.9945 18.2924 25.9945 18.9562V23.0647L22.4364 21.0104C21.8638 20.6795 21.1265 20.8759 20.7919 21.4511L17.9919 26.3012C17.8311 26.5798 17.7883 26.9042 17.8717 27.2149C17.9552 27.5254 18.1542 27.7849 18.4326 27.9455L21.9907 29.9997L18.4328 32.0538C18.1542 32.2145 17.9552 32.474 17.8717 32.7845C17.7883 33.0952 17.8311 33.4196 17.9919 33.6984L20.7939 38.5518C21.1265 39.1232 21.8629 39.3193 22.4366 38.989L25.9945 36.9347V41.0432C25.9945 41.707 26.5347 42.247 27.1985 42.247H32.7985C33.4623 42.247 34.0025 41.707 34.0025 41.0432V36.9347L37.5606 38.989C38.1334 39.3197 38.8703 39.1235 39.2051 38.5483L42.0051 33.6982C42.1659 33.4196 42.2087 33.0952 42.1253 32.7845ZM37.7886 36.5514L33.584 34.1239C33.2128 33.9092 32.7513 33.9092 32.3798 34.123C32.0082 34.3374 31.7774 34.737 31.7774 35.166V40.022H28.2195V35.166C28.2195 34.737 27.9888 34.3374 27.6172 34.123C27.2454 33.9092 26.7843 33.9094 26.4138 34.1234L22.2084 36.5514L20.4294 33.4702L24.6357 31.0418C25.0065 30.8274 25.2368 30.428 25.2368 29.9997C25.2368 29.5714 25.0065 29.172 24.6349 28.9571L20.4294 26.5291L22.2084 23.4479L26.413 25.8755C26.7843 26.0904 27.2458 26.0904 27.6172 25.8764C27.9888 25.6619 28.2195 25.2623 28.2195 24.8334V19.9774H31.7774V24.8334C31.7774 25.2623 32.0082 25.6619 32.3798 25.8764C32.7518 26.0904 33.2129 26.0902 33.5831 25.8759L37.7886 23.4479L39.5675 26.5291L35.3612 28.9576C34.9905 29.172 34.7602 29.5714 34.7602 29.9997C34.7602 30.428 34.9905 30.8273 35.3621 31.0422L39.5675 33.4702L37.7886 36.5514Z" fill="#3C2219"/>
</svg>
