<svg width="30" height="30" viewBox="0 0 30 30" fill="none" xmlns="http://www.w3.org/2000/svg">
<g clip-path="url(#clip0_803_87)">
<path d="M7.24412 15.3117C6.49219 14.5598 5.26828 14.5595 4.51582 15.3117C4.50275 15.3248 4.48998 15.338 4.47727 15.3513V10.2148C4.47727 8.98031 3.47297 7.97607 2.23869 7.97607C1.0043 7.97602 0 8.98031 0 10.2147V17.2124C0 18.2058 0.356191 19.0656 1.05867 19.7679L3.56965 22.2789C4.12219 22.8314 4.39078 23.4797 4.39078 24.2612V29.5945C4.39078 29.8185 4.57225 29.9999 4.79619 29.9999C5.02014 29.9999 5.2016 29.8185 5.2016 29.5945V24.2612C5.2016 23.2678 4.84541 22.4081 4.14293 21.7056L1.63189 19.1946C1.07936 18.6422 0.810762 17.9938 0.810762 17.2124V10.2147C0.810762 9.42738 1.45131 8.78684 2.23863 8.78684C3.02596 8.78684 3.66639 9.42738 3.66639 10.2147V15.9593C3.66639 16.7334 3.92941 17.4088 4.44832 17.9692C4.47012 17.9932 4.49268 18.0168 4.51576 18.0399C4.51764 18.0418 4.51945 18.0436 4.52133 18.0455L4.53715 18.0613L8.0318 21.5559C8.19018 21.7143 8.4467 21.7143 8.60508 21.5559C8.76346 21.3977 8.76346 21.1409 8.60508 20.9827L5.11043 17.488C5.08916 17.4666 5.06836 17.4451 5.04814 17.4235C4.86404 17.2189 4.76338 16.9557 4.76338 16.6759C4.76338 16.376 4.87898 16.0951 5.0891 15.885C5.5251 15.4491 6.23484 15.4491 6.67084 15.885L11.4019 20.616C11.9543 21.1686 12.2228 21.8171 12.2228 22.5983V29.5945C12.2228 29.8184 12.4043 29.9999 12.6282 29.9999C12.8522 29.9999 13.0337 29.8184 13.0337 29.5945V22.5983C13.0337 21.6052 12.6775 20.7452 11.9752 20.0428L7.24412 15.3117Z" fill="#F38660"/>
<path d="M27.7619 7.97607C26.5276 7.97607 25.5233 8.98037 25.5233 10.2148V15.3515C25.5106 15.3382 25.4977 15.3248 25.4846 15.3118C24.7327 14.5598 23.5088 14.5598 22.7563 15.3118L18.0253 20.0428C17.323 20.7453 16.9668 21.6052 16.9668 22.5984V29.5945C16.9668 29.8185 17.1483 29.9999 17.3722 29.9999C17.5962 29.9999 17.7776 29.8185 17.7776 29.5945V22.5984C17.7776 21.8171 18.0462 21.1686 18.5986 20.6161L23.3296 15.8852C23.7658 15.449 24.4752 15.4492 24.9113 15.8851C25.1215 16.0952 25.2371 16.376 25.2371 16.676C25.2371 16.9576 25.1351 17.2223 24.9487 17.4275C24.9297 17.4479 24.9102 17.468 24.8901 17.4881L21.3954 20.9828C21.237 21.141 21.237 21.3977 21.3954 21.5561C21.5538 21.7144 21.8103 21.7144 21.9687 21.5561L25.4634 18.0614C25.4697 18.0551 25.476 18.0489 25.4822 18.0425C25.483 18.0417 25.4839 18.041 25.4847 18.04C25.5061 18.0188 25.5268 17.997 25.547 17.9748C26.0695 17.4134 26.3342 16.7359 26.3342 15.9594V10.2148C26.3342 9.4275 26.9746 8.78695 27.7619 8.78695C28.5493 8.78695 29.1897 9.4275 29.1897 10.2148V17.2126C29.1897 17.994 28.9212 18.6423 28.3686 19.1947L25.8576 21.7057C25.1553 22.4082 24.7991 23.268 24.7991 24.2613V29.5946C24.7991 29.8186 24.9805 30.0001 25.2045 30.0001C25.4284 30.0001 25.6099 29.8186 25.6099 29.5946V24.2613C25.6099 23.48 25.8784 22.8315 26.4309 22.279L28.9418 19.768C29.6443 19.0658 30.0005 18.2058 30.0005 17.2125V10.2148C30.0005 8.98037 28.9962 7.97607 27.7619 7.97607Z" fill="#F38660"/>
<path d="M24.3771 4.99857C24.3771 3.6583 23.8585 2.4017 22.9169 1.46027C21.9754 0.518613 20.7188 0 19.3785 0C18.0382 0 16.7816 0.518613 15.8402 1.46021L15 2.30045L14.1599 1.46021C13.2184 0.518613 11.9617 0 10.6214 0C9.28129 0 8.02457 0.518613 7.08314 1.46021C6.14154 2.4017 5.62305 3.6583 5.62305 4.99852C5.62305 6.33867 6.14154 7.59539 7.08314 8.53682L14.7134 16.1671C14.7926 16.2462 14.8963 16.2858 15 16.2858C15.1038 16.2858 15.2075 16.2462 15.2867 16.1671L22.9169 8.53682C23.8585 7.59539 24.3771 6.33879 24.3771 4.99857ZM15 15.3072L7.65637 7.96359C6.86799 7.17522 6.43381 6.12211 6.43381 4.99852C6.43369 3.8748 6.86799 2.82182 7.65637 2.03344C8.44475 1.24494 9.49785 0.810762 10.6214 0.810762C11.7452 0.810762 12.7983 1.24494 13.5866 2.03344L14.7134 3.16031C14.7894 3.23631 14.8925 3.27908 15 3.27908C15.1076 3.27908 15.2107 3.23631 15.2867 3.16031L16.4136 2.03344C17.2019 1.24494 18.255 0.810762 19.3786 0.810762C20.5022 0.810762 21.5553 1.24494 22.3437 2.03344C23.1321 2.82182 23.5664 3.87492 23.5664 4.99852C23.5664 6.12211 23.1321 7.17522 22.3437 7.96359L15 15.3072Z" fill="#F38660"/>
</g>
<defs>
<clipPath id="clip0_803_87">
<rect width="30" height="30" fill="white"/>
</clipPath>
</defs>
</svg>
